<svg width="47" height="47" viewBox="0 0 47 47" fill="none" xmlns="http://www.w3.org/2000/svg">
<path d="M2 16.3333H45M11.5556 2V6.77778M35.4444 2V6.77778M9.16667 23.5H13.9444M21.1111 23.5H25.8889M33.0556 23.5H37.8333M9.16667 30.6667H13.9444M21.1111 30.6667H25.8889M33.0556 30.6667H37.8333M9.16667 37.8333H13.9444M21.1111 37.8333H25.8889M33.0556 37.8333H37.8333M9.64444 45H37.3556C40.0313 45 41.3694 45 42.3913 44.4792C43.2903 44.0213 44.0213 43.2903 44.4792 42.3913C45 41.3694 45 40.0313 45 37.3556V14.4222C45 11.7464 45 10.4085 44.4792 9.38649C44.0213 8.48748 43.2903 7.75658 42.3913 7.29853C41.3694 6.77778 40.0313 6.77778 37.3556 6.77778H9.64444C6.96865 6.77778 5.63073 6.77778 4.60871 7.29853C3.7097 7.75658 2.9788 8.48748 2.52075 9.38649C2 10.4085 2 11.7464 2 14.4222V37.3556C2 40.0313 2 41.3694 2.52075 42.3913C2.9788 43.2903 3.7097 44.0213 4.60871 44.4792C5.63073 45 6.96863 45 9.64444 45Z" stroke="#851342" stroke-width="4" stroke-linecap="round"/>
</svg>
