<svg width="20" height="20" viewBox="0 0 20 20" fill="none" xmlns="http://www.w3.org/2000/svg">
<path d="M5.5 10L8.875 13.375L14.5 6.625M1 15.4002V4.60023C1 3.3401 1 2.70957 1.24524 2.22828C1.46095 1.8049 1.8049 1.46095 2.22828 1.24524C2.70957 1 3.3401 1 4.60023 1H15.4002C16.6603 1 17.2896 1 17.7708 1.24524C18.1942 1.46095 18.5393 1.8049 18.755 2.22828C19 2.7091 19 3.33886 19 4.59652V15.4041C19 16.6617 19 17.2906 18.755 17.7714C18.5393 18.1947 18.1942 18.5393 17.7708 18.755C17.29 19 16.6611 19 15.4035 19H4.59652C3.33886 19 2.7091 19 2.22828 18.755C1.8049 18.5393 1.46095 18.1947 1.24524 17.7714C1 17.2901 1 16.6603 1 15.4002Z" stroke="#CA2061" stroke-width="2" stroke-linecap="round" stroke-linejoin="round"/>
</svg>
