<svg width="45" height="54" viewBox="0 0 45 54" fill="none" xmlns="http://www.w3.org/2000/svg">
<mask id="path-1-inside-1_148_6014" fill="white">
<path d="M18.8471 20.8299C19.3285 21.6593 20.3878 21.9395 21.2132 21.4559C22.0386 20.9723 22.3175 19.9079 21.8363 19.0785L18.8471 20.8299ZM12.207 26.8737C12.6883 27.703 13.7477 27.9832 14.5731 27.4995C15.3985 27.016 15.6775 25.9517 15.1961 25.1221L12.207 26.8737ZM31.837 22.2761L32.6956 23.7854C33.0963 23.5553 33.3888 23.174 33.5083 22.7262C33.6278 22.2781 33.5641 21.801 33.3316 21.4004L31.837 22.2761ZM26.6154 34.2149C27.0969 35.0442 28.1562 35.3245 28.9815 34.841C29.8072 34.3572 30.0861 33.2929 29.6046 32.4636L26.6154 34.2149ZM4.92812 19.6537C6.3899 18.8143 7.82894 19.3303 8.32274 20.1811L11.3119 18.4297C9.66051 15.5843 5.95289 15.0608 3.21115 16.6352L4.92812 19.6537ZM3.21115 16.6352C0.464038 18.2126 -0.948424 21.6915 0.711563 24.5517L3.70071 22.8004C3.21551 21.9643 3.47167 20.49 4.92812 19.6537L3.21115 16.6352ZM11.0787 7.44488L13.0208 10.7911L16.0099 9.03975L14.0678 5.69349L11.0787 7.44488ZM13.0208 10.7911L18.8471 20.8299L21.8363 19.0785L16.0099 9.03975L13.0208 10.7911ZM15.1961 25.1221L11.3119 18.4297L8.32274 20.1811L12.207 26.8737L15.1961 25.1221ZM11.3119 18.4297L6.45664 10.0641L3.46749 11.8155L8.32274 20.1811L11.3119 18.4297ZM7.68405 6.91748C9.14583 6.07808 10.5849 6.59408 11.0787 7.44488L14.0678 5.69349C12.4164 2.84813 8.70882 2.32456 5.96708 3.89894L7.68405 6.91748ZM5.96708 3.89894C3.21996 5.47642 1.8075 8.95529 3.46749 11.8155L6.45664 10.0641C5.97144 9.22805 6.22759 7.75382 7.68405 6.91748L5.96708 3.89894ZM20.6319 6.42056L26.4583 16.4593L29.4475 14.7079L23.6211 4.66917L20.6319 6.42056ZM26.4583 16.4593L30.3426 23.1517L33.3316 21.4004L29.4475 14.7079L26.4583 16.4593ZM17.2373 5.89317C18.6992 5.05377 20.1382 5.56976 20.6319 6.42056L23.6211 4.66917C21.9696 1.82381 18.2621 1.30024 15.5204 2.87462L17.2373 5.89317ZM15.5204 2.87462C12.7733 4.45211 11.3608 7.93097 13.0208 10.7911L16.0099 9.03975C15.5247 8.20373 15.7809 6.72951 17.2373 5.89317L15.5204 2.87462ZM34.0695 12.0887L39.8957 22.1275L42.8849 20.3761L37.0585 10.3374L34.0695 12.0887ZM30.6748 11.5614C32.1366 10.722 33.5756 11.2379 34.0695 12.0887L37.0585 10.3374C35.4073 7.49202 31.6997 6.96843 28.9578 8.54283L30.6748 11.5614ZM28.9578 8.54283C26.2108 10.1203 24.7983 13.5992 26.4583 16.4593L29.4475 14.7079C28.9622 13.8719 29.2185 12.3977 30.6748 11.5614L28.9578 8.54283ZM0.711563 24.5517L9.45103 39.6099L12.4402 37.8583L3.70071 22.8004L0.711563 24.5517ZM33.0778 41.8686C25.3109 46.3288 16.1518 44.2534 12.4402 37.8583L9.45103 39.6099C14.3202 47.9995 25.7478 50.0823 34.7948 44.8873L33.0778 41.8686ZM39.8957 22.1275C43.5987 28.5078 40.8397 37.4117 33.0778 41.8686L34.7948 44.8873C43.8474 39.6892 47.7628 28.7806 42.8849 20.3761L39.8957 22.1275ZM29.6046 32.4636C28.0468 29.7793 29.1373 25.8286 32.6956 23.7854L30.9786 20.7669C26.1298 23.5513 23.8829 29.5067 26.6154 34.2149L29.6046 32.4636Z"/>
</mask>
<path d="M18.8471 20.8299C19.3285 21.6593 20.3878 21.9395 21.2132 21.4559C22.0386 20.9723 22.3175 19.9079 21.8363 19.0785L18.8471 20.8299ZM12.207 26.8737C12.6883 27.703 13.7477 27.9832 14.5731 27.4995C15.3985 27.016 15.6775 25.9517 15.1961 25.1221L12.207 26.8737ZM31.837 22.2761L32.6956 23.7854C33.0963 23.5553 33.3888 23.174 33.5083 22.7262C33.6278 22.2781 33.5641 21.801 33.3316 21.4004L31.837 22.2761ZM26.6154 34.2149C27.0969 35.0442 28.1562 35.3245 28.9815 34.841C29.8072 34.3572 30.0861 33.2929 29.6046 32.4636L26.6154 34.2149ZM4.92812 19.6537C6.3899 18.8143 7.82894 19.3303 8.32274 20.1811L11.3119 18.4297C9.66051 15.5843 5.95289 15.0608 3.21115 16.6352L4.92812 19.6537ZM3.21115 16.6352C0.464038 18.2126 -0.948424 21.6915 0.711563 24.5517L3.70071 22.8004C3.21551 21.9643 3.47167 20.49 4.92812 19.6537L3.21115 16.6352ZM11.0787 7.44488L13.0208 10.7911L16.0099 9.03975L14.0678 5.69349L11.0787 7.44488ZM13.0208 10.7911L18.8471 20.8299L21.8363 19.0785L16.0099 9.03975L13.0208 10.7911ZM15.1961 25.1221L11.3119 18.4297L8.32274 20.1811L12.207 26.8737L15.1961 25.1221ZM11.3119 18.4297L6.45664 10.0641L3.46749 11.8155L8.32274 20.1811L11.3119 18.4297ZM7.68405 6.91748C9.14583 6.07808 10.5849 6.59408 11.0787 7.44488L14.0678 5.69349C12.4164 2.84813 8.70882 2.32456 5.96708 3.89894L7.68405 6.91748ZM5.96708 3.89894C3.21996 5.47642 1.8075 8.95529 3.46749 11.8155L6.45664 10.0641C5.97144 9.22805 6.22759 7.75382 7.68405 6.91748L5.96708 3.89894ZM20.6319 6.42056L26.4583 16.4593L29.4475 14.7079L23.6211 4.66917L20.6319 6.42056ZM26.4583 16.4593L30.3426 23.1517L33.3316 21.4004L29.4475 14.7079L26.4583 16.4593ZM17.2373 5.89317C18.6992 5.05377 20.1382 5.56976 20.6319 6.42056L23.6211 4.66917C21.9696 1.82381 18.2621 1.30024 15.5204 2.87462L17.2373 5.89317ZM15.5204 2.87462C12.7733 4.45211 11.3608 7.93097 13.0208 10.7911L16.0099 9.03975C15.5247 8.20373 15.7809 6.72951 17.2373 5.89317L15.5204 2.87462ZM34.0695 12.0887L39.8957 22.1275L42.8849 20.3761L37.0585 10.3374L34.0695 12.0887ZM30.6748 11.5614C32.1366 10.722 33.5756 11.2379 34.0695 12.0887L37.0585 10.3374C35.4073 7.49202 31.6997 6.96843 28.9578 8.54283L30.6748 11.5614ZM28.9578 8.54283C26.2108 10.1203 24.7983 13.5992 26.4583 16.4593L29.4475 14.7079C28.9622 13.8719 29.2185 12.3977 30.6748 11.5614L28.9578 8.54283ZM0.711563 24.5517L9.45103 39.6099L12.4402 37.8583L3.70071 22.8004L0.711563 24.5517ZM33.0778 41.8686C25.3109 46.3288 16.1518 44.2534 12.4402 37.8583L9.45103 39.6099C14.3202 47.9995 25.7478 50.0823 34.7948 44.8873L33.0778 41.8686ZM39.8957 22.1275C43.5987 28.5078 40.8397 37.4117 33.0778 41.8686L34.7948 44.8873C43.8474 39.6892 47.7628 28.7806 42.8849 20.3761L39.8957 22.1275ZM29.6046 32.4636C28.0468 29.7793 29.1373 25.8286 32.6956 23.7854L30.9786 20.7669C26.1298 23.5513 23.8829 29.5067 26.6154 34.2149L29.6046 32.4636Z" fill="#851342"/>
<path d="M3.21115 16.6352L4.29768 16.0171L2.12462 17.2532L3.21115 16.6352ZM34.0695 12.0887L33.4376 11.0103L34.7015 13.1673L34.0695 12.0887ZM42.8849 20.3761L43.5168 21.4546L42.253 19.2976L42.8849 20.3761ZM12.4402 37.8583L13.0722 38.9368L11.8083 36.7798L12.4402 37.8583ZM33.0778 41.8686L34.1643 41.2505L31.9913 42.4866L33.0778 41.8686ZM5.15616 17.5264L4.29769 16.0171L2.12462 17.2532L2.98309 18.7624L5.15616 17.5264ZM10.4492 20.3839L11.9438 19.5082L10.68 17.3512L9.18542 18.2269L10.4492 20.3839ZM1.57425 22.5975L0.0796631 23.4732L1.34346 25.6302L2.83805 24.7545L1.57425 22.5975ZM13.2052 7.64769L14.6998 6.772L13.4359 4.61497L11.9413 5.49067L13.2052 7.64769ZM13.8834 8.83694L12.3889 9.71263L13.6527 11.8696L15.1473 10.9939L13.8834 8.83694ZM21.2044 18L18.2152 19.7514L19.479 21.9084L22.4682 20.157L21.2044 18ZM14.5642 24.0436L11.575 25.7952L12.8389 27.9522L15.8281 26.2006L14.5642 24.0436ZM4.33016 9.86125L2.83558 10.7369L4.0994 12.894L5.59399 12.0183L4.33016 9.86125ZM22.7584 6.62338L24.253 5.74769L22.9892 3.59066L21.4946 4.46635L22.7584 6.62338ZM28.5848 16.6621L30.0794 15.7864L28.8156 13.6294L27.321 14.5051L28.5848 16.6621ZM34.9322 10.1345L33.4376 11.0102L34.7015 13.1673L36.1961 12.2916L34.9322 10.1345ZM42.0222 22.3303L43.5168 21.4546L42.253 19.2976L40.7584 20.1733L42.0222 22.3303ZM11.5775 39.8125L13.0721 38.9368L11.8083 36.7798L10.3137 37.6555L11.5775 39.8125ZM35.0229 42.7599L34.1643 41.2505L31.9913 42.4867L32.8499 43.996L35.0229 42.7599ZM28.9727 31.3851L25.9835 33.1364L27.2473 35.2934L30.2365 33.5421L28.9727 31.3851ZM8.95466 21.2596L11.9438 19.5082L10.68 17.3512L7.69083 19.1026L8.95466 21.2596ZM2.12463 17.2532L3.84159 20.2717L6.01465 19.0357L4.29768 16.0171L2.12463 17.2532ZM1.34347 25.6302L4.33262 23.8789L3.06881 21.7218L0.0796594 23.4732L1.34347 25.6302ZM13.6527 11.8696L16.6419 10.1183L15.378 7.96124L12.3889 9.71263L13.6527 11.8696ZM13.4359 4.61497L10.4468 6.36637L11.7106 8.52339L14.6998 6.772L13.4359 4.61497ZM5.82472 8.98555L2.83557 10.7369L4.09941 12.894L7.08856 11.1426L5.82472 8.98555ZM4.88055 4.51696L6.59752 7.53551L8.77058 6.29946L7.05361 3.28091L4.88055 4.51696ZM27.0902 17.5378L30.0794 15.7864L28.8156 13.6294L25.8264 15.3808L27.0902 17.5378ZM22.9892 3.59066L20 5.34205L21.2638 7.49908L24.253 5.74769L22.9892 3.59066ZM14.4338 3.49265L16.1508 6.51119L18.3239 5.27514L16.6069 2.2566L14.4338 3.49265ZM40.5276 23.206L43.5168 21.4546L42.253 19.2976L39.2638 21.049L40.5276 23.206ZM36.4266 9.25886L33.4376 11.0103L34.7015 13.1672L37.6905 11.4159L36.4266 9.25886ZM27.8713 9.16086L29.5883 12.1794L31.7613 10.9433L30.0443 7.9248L27.8713 9.16086ZM10.083 40.6884L13.0722 38.9368L11.8082 36.7798L8.81906 38.5314L10.083 40.6884ZM35.8814 44.2693L34.1644 41.2506L31.9913 42.4866L33.7083 45.5053L35.8814 44.2693ZM3.21115 16.6352L4.45607 18.8031L4.45608 18.8031L3.21115 16.6352ZM11.3119 18.4297L9.1497 19.6846L9.1497 19.6846L11.3119 18.4297ZM0.711563 24.5517L-1.45066 25.8066L-1.45066 25.8066L0.711563 24.5517ZM14.0678 5.69349L16.2301 4.43858L16.2301 4.43857L14.0678 5.69349ZM13.0208 10.7911L15.183 9.53623L15.183 9.53622L13.0208 10.7911ZM18.8471 20.8299L16.6849 22.0848L16.685 22.085L18.8471 20.8299ZM21.2132 21.4559L19.9494 19.2989L19.9493 19.2989L21.2132 21.4559ZM21.8363 19.0785L23.9987 17.8238L23.9985 17.8236L21.8363 19.0785ZM12.207 26.8737L10.0447 28.1286L10.0448 28.1287L12.207 26.8737ZM14.5731 27.4995L13.3095 25.3423L13.3091 25.3426L14.5731 27.4995ZM15.1961 25.1221L17.3585 23.8674L17.3583 23.8672L15.1961 25.1221ZM3.46749 11.8155L1.30527 13.0704L1.30527 13.0704L3.46749 11.8155ZM23.6211 4.66917L25.7833 3.41424L25.7833 3.41421L23.6211 4.66917ZM29.4475 14.7079L31.6098 13.4531L31.6097 13.453L29.4475 14.7079ZM31.837 22.2761L30.5732 20.119L28.4435 21.3667L29.664 23.5122L31.837 22.2761ZM32.6956 23.7854L33.9404 25.9534L33.9408 25.9533L32.6956 23.7854ZM33.5083 22.7262L35.9238 23.3707L35.9238 23.3704L33.5083 22.7262ZM34.0695 12.0887L36.2318 10.8339L36.2316 10.8336L34.0695 12.0887ZM42.8849 20.3761L45.0472 19.1212L45.0472 19.1212L42.8849 20.3761ZM12.4402 37.8583L14.6024 36.6034L14.6024 36.6034L12.4402 37.8583ZM33.0778 41.8686L31.8329 39.7006L31.8329 39.7006L33.0778 41.8686ZM26.6154 34.2149L24.4532 35.4698L24.4533 35.4701L26.6154 34.2149ZM28.9815 34.841L30.2452 36.9981L30.2453 36.998L28.9815 34.841ZM29.6046 32.4636L27.4424 33.7184L27.4425 33.7187L29.6046 32.4636ZM4.92812 19.6537L3.6832 17.4857H3.6832L4.92812 19.6537ZM8.32274 20.1811L10.485 18.9262L10.485 18.9262L8.32274 20.1811ZM3.70071 22.8004L1.53847 24.0552L1.5385 24.0553L3.70071 22.8004ZM11.0787 7.44488L13.2409 6.18996L13.2409 6.18994L11.0787 7.44488ZM16.0099 9.03975L13.8477 10.2947L13.8477 10.2947L16.0099 9.03975ZM6.45664 10.0641L4.29441 11.319L4.29442 11.319L6.45664 10.0641ZM7.68405 6.91748L6.43912 4.74949L6.43912 4.74949L7.68405 6.91748ZM5.96708 3.89894L4.72216 1.73095L4.72215 1.73095L5.96708 3.89894ZM20.6319 6.42056L18.4695 7.67524L18.4697 7.67549L20.6319 6.42056ZM26.4583 16.4593L24.2961 17.7143L24.2961 17.7143L26.4583 16.4593ZM30.3426 23.1517L28.1804 24.4067L29.4405 26.5778L31.6064 25.3088L30.3426 23.1517ZM17.2373 5.89317L15.9925 3.72514L15.9924 3.72518L17.2373 5.89317ZM15.5204 2.87462L16.7653 5.0426L16.7653 5.0426L15.5204 2.87462ZM39.8957 22.1275L37.7335 23.3824L37.7335 23.3824L39.8957 22.1275ZM37.0585 10.3374L34.8963 11.5922L34.8963 11.5923L37.0585 10.3374ZM30.6748 11.5614L29.4299 9.39334L29.4298 9.39342L30.6748 11.5614ZM28.9578 8.54283L27.7129 6.37481L27.7128 6.37486L28.9578 8.54283ZM9.45103 39.6099L7.2888 40.8648L7.28881 40.8648L9.45103 39.6099ZM34.7948 44.8873L36.0397 47.0553L36.0397 47.0553L34.7948 44.8873ZM30.9786 20.7669L33.1516 19.5308L31.9105 17.3488L29.7336 18.5989L30.9786 20.7669ZM16.685 22.085C17.8587 24.1069 20.452 24.7994 22.4771 23.6129L19.9493 19.2989C20.3236 19.0796 20.7984 19.2116 21.0092 19.5748L16.685 22.085ZM22.4771 23.6129C24.4951 22.4305 25.1679 19.8389 23.9987 17.8238L19.6739 20.3332C19.4672 19.9768 19.5821 19.514 19.9494 19.2989L22.4771 23.6129ZM10.0448 28.1287C11.2185 30.1509 13.8121 30.8431 15.8371 29.6564L13.3091 25.3426C13.6832 25.1234 14.1581 25.2551 14.3691 25.6187L10.0448 28.1287ZM15.8366 29.6567C17.8552 28.4743 18.5278 25.8826 17.3585 23.8674L13.0338 26.3768C12.8272 26.0208 12.9419 25.5577 13.3095 25.3423L15.8366 29.6567ZM29.664 23.5122L30.5226 25.0216L34.8686 22.5493L34.01 21.0399L29.664 23.5122ZM33.9408 25.9533C34.9209 25.3903 35.6332 24.4596 35.9238 23.3707L31.0928 22.0816C31.1444 21.8884 31.2716 21.7203 31.4504 21.6176L33.9408 25.9533ZM35.9238 23.3704C36.2144 22.2812 36.0598 21.1206 35.4937 20.1453L31.1695 22.6556C31.0684 22.4814 31.0412 22.2751 31.0927 22.0819L35.9238 23.3704ZM32.0678 19.2434L30.5732 20.119L33.1007 24.4331L34.5953 23.5575L32.0678 19.2434ZM24.4533 35.4701C25.6271 37.492 28.2203 38.1842 30.2452 36.9981L27.7179 32.6838C28.092 32.4647 28.5666 32.5965 28.7775 32.9598L24.4533 35.4701ZM30.2453 36.998C32.2634 35.8156 32.9368 33.2239 31.7667 31.2084L27.4425 33.7187C27.2354 33.3619 27.3509 32.8988 27.7177 32.6839L30.2453 36.998ZM6.17304 21.8217C6.28636 21.7566 6.36509 21.7367 6.40533 21.7302C6.4473 21.7234 6.46521 21.7282 6.46093 21.7273C6.45956 21.727 6.4303 21.7207 6.38123 21.6873C6.33481 21.6556 6.24486 21.5813 6.16054 21.436L10.4849 18.9261C9.18701 16.6899 6.13273 16.0791 3.6832 17.4857L6.17304 21.8217ZM13.4741 17.1748C10.977 12.8722 5.61485 12.372 1.96622 14.4672L4.45608 18.8031C6.29093 17.7495 8.34401 18.2964 9.1497 19.6846L13.4741 17.1748ZM1.96624 14.4672C-1.69056 16.567 -3.96356 21.4768 -1.45066 25.8066L2.87379 23.2968C2.06671 21.9062 2.61864 19.8582 4.45607 18.8031L1.96624 14.4672ZM5.86296 21.5455C5.94798 21.692 5.96996 21.8108 5.97506 21.8747C5.98041 21.9417 5.97034 21.9798 5.96663 21.9913C5.96201 22.0057 5.96189 21.9961 5.98416 21.9691C6.00548 21.9431 6.05906 21.8871 6.17304 21.8217L3.6832 17.4857C1.23027 18.8942 0.245068 21.8266 1.53847 24.0552L5.86296 21.5455ZM8.91645 8.69979L10.8586 12.0461L15.183 9.53622L13.2409 6.18996L8.91645 8.69979ZM18.1722 7.78484L16.2301 4.43858L11.9056 6.94839L13.8477 10.2947L18.1722 7.78484ZM10.8586 12.0461L16.6849 22.0848L21.0093 19.575L15.183 9.53623L10.8586 12.0461ZM23.9985 17.8236L18.1721 7.78483L13.8477 10.2947L19.6741 20.3334L23.9985 17.8236ZM17.3583 23.8672L13.4741 17.1748L9.1497 19.6846L13.0339 26.377L17.3583 23.8672ZM6.16052 21.436L10.0447 28.1286L14.3692 25.6188L10.485 18.9262L6.16052 21.436ZM13.4741 17.1748L8.61886 8.80915L4.29442 11.319L9.1497 19.6846L13.4741 17.1748ZM1.30527 13.0704L6.16052 21.436L10.485 18.9262L5.62971 10.5605L1.30527 13.0704ZM8.92897 9.08547C9.04229 9.0204 9.12102 9.0005 9.16126 8.99399C9.20323 8.98719 9.22114 8.992 9.21685 8.99107C9.21549 8.99077 9.18623 8.98452 9.13716 8.95107C9.09073 8.91941 9.00078 8.84509 8.91647 8.69982L13.2409 6.18994C11.9429 3.95366 8.88866 3.3429 6.43912 4.74949L8.92897 9.08547ZM16.2301 4.43857C13.7329 0.136043 8.37079 -0.364192 4.72216 1.73095L7.212 6.06693C9.04685 5.0133 11.0999 5.56021 11.9056 6.94841L16.2301 4.43857ZM4.72215 1.73095C1.06538 3.83079 -1.20764 8.7406 1.30527 13.0704L5.62971 10.5605C4.82265 9.16997 5.37455 7.12205 7.21201 6.06692L4.72215 1.73095ZM8.61887 8.80917C8.7039 8.95568 8.72589 9.07449 8.73099 9.1384C8.73634 9.20546 8.72626 9.24357 8.72255 9.25512C8.71792 9.26954 8.7178 9.25994 8.74007 9.23288C8.76139 9.20696 8.81497 9.15093 8.92897 9.08547L6.43912 4.74949C3.98626 6.158 3.00095 9.09029 4.29441 11.319L8.61887 8.80917ZM18.4697 7.67549L24.2961 17.7143L28.6205 15.2044L22.7941 5.16563L18.4697 7.67549ZM31.6097 13.453L25.7833 3.41424L21.4589 5.9241L27.2853 15.9629L31.6097 13.453ZM24.2961 17.7143L28.1804 24.4067L32.5048 21.8968L28.6205 15.2044L24.2961 17.7143ZM31.6064 25.3088L34.5954 23.5575L32.0677 19.2434L29.0788 20.9947L31.6064 25.3088ZM35.4938 20.1456L31.6098 13.4531L27.2853 15.9628L31.1693 22.6553L35.4938 20.1456ZM18.4822 8.06119C18.5956 7.99609 18.6743 7.97619 18.7146 7.96967C18.7566 7.96287 18.7745 7.96768 18.7702 7.96675C18.7688 7.96645 18.7395 7.96019 18.6904 7.9267C18.6439 7.895 18.5539 7.82061 18.4695 7.67524L22.7943 5.16589C21.4964 2.92915 18.4419 2.31871 15.9925 3.72514L18.4822 8.06119ZM25.7833 3.41421C23.2861 -0.888233 17.9241 -1.38853 14.2754 0.706641L16.7653 5.0426C18.6001 3.98902 20.6532 4.53586 21.4589 5.92413L25.7833 3.41421ZM14.2754 0.706638C10.6187 2.80648 8.34565 7.71629 10.8586 12.0461L15.183 9.53623C14.3759 8.14565 14.9278 6.09774 16.7653 5.0426L14.2754 0.706638ZM18.1722 7.78485C18.2572 7.93136 18.2792 8.05018 18.2843 8.11408C18.2896 8.18115 18.2796 8.21925 18.2758 8.23081C18.2712 8.24523 18.2711 8.23563 18.2934 8.20856C18.3147 8.18265 18.3683 8.12661 18.4823 8.06115L15.9924 3.72518C13.5396 5.13369 12.5542 8.06597 13.8477 10.2946L18.1722 7.78485ZM31.9073 13.3436L37.7335 23.3824L42.058 20.8726L36.2318 10.8339L31.9073 13.3436ZM45.0472 19.1212L39.2207 9.08243L34.8963 11.5923L40.7227 21.631L45.0472 19.1212ZM31.9197 13.7294C32.033 13.6643 32.1118 13.6444 32.152 13.6379C32.194 13.6311 32.2119 13.6359 32.2077 13.6349C32.2063 13.6347 32.1771 13.6284 32.128 13.595C32.0816 13.5633 31.9917 13.4891 31.9074 13.3439L36.2316 10.8336C34.9336 8.59761 31.8795 7.98675 29.4299 9.39334L31.9197 13.7294ZM39.2208 9.08252C36.7238 4.77986 31.3616 4.27974 27.7129 6.37481L30.2027 10.7108C32.0378 9.65712 34.0908 10.2042 34.8963 11.5922L39.2208 9.08252ZM27.7128 6.37486C24.0562 8.47468 21.7832 13.3845 24.2961 17.7143L28.6205 15.2044C27.8135 13.8138 28.3654 11.7659 30.2027 10.7108L27.7128 6.37486ZM31.6096 13.4527C31.6947 13.5993 31.7167 13.7182 31.7218 13.7822C31.7272 13.8493 31.7171 13.8874 31.7134 13.899C31.7087 13.9134 31.7086 13.9038 31.7309 13.8767C31.7522 13.8508 31.8058 13.7947 31.9198 13.7293L29.4298 9.39342C26.9774 10.8018 25.9914 13.7341 27.2855 15.9631L31.6096 13.4527ZM-1.45066 25.8066L7.2888 40.8648L11.6132 38.355L2.87379 23.2968L-1.45066 25.8066ZM14.6024 36.6034L5.86293 21.5454L1.5385 24.0553L10.278 39.1132L14.6024 36.6034ZM31.8329 39.7006C25.0059 43.6211 17.4851 41.5703 14.6024 36.6034L10.278 39.1132C14.8185 46.9365 25.6159 49.0365 34.3228 44.0366L31.8329 39.7006ZM7.28881 40.8648C12.9956 50.6975 26.0698 52.7802 36.0397 47.0553L33.5499 42.7193C25.4259 47.3843 15.6449 45.3014 11.6132 38.355L7.28881 40.8648ZM37.7335 23.3824C40.6014 28.3238 38.65 35.7861 31.8329 39.7006L34.3227 44.0366C43.0293 39.0372 46.596 28.6917 42.0579 20.8726L37.7335 23.3824ZM36.0397 47.0553C46.019 41.325 50.7693 28.9804 45.0472 19.1212L40.7227 21.631C44.7562 28.5807 41.6758 38.0533 33.5499 42.7193L36.0397 47.0553ZM31.7669 31.2087C31.0376 29.9521 31.3396 27.4469 33.9404 25.9534L31.4507 21.6174C26.935 24.2103 25.056 29.6065 27.4424 33.7184L31.7669 31.2087ZM34.8686 22.5494L33.1516 19.5308L28.8055 22.0029L30.5225 25.0215L34.8686 22.5494ZM29.7336 18.5989C23.9649 21.9116 20.873 29.301 24.4532 35.4698L28.7776 32.96C26.8929 29.7125 28.2947 25.191 32.2236 22.9348L29.7336 18.5989Z" fill="#851342" mask="url(#path-1-inside-1_148_6014)"/>
<path opacity="0.5" d="M15 51.9999C10.7786 50.1544 7.2918 47.2785 5 43.4285" stroke="#851342" stroke-width="3.75" stroke-linecap="round"/>
<path opacity="0.5" d="M30 2.4753C34.1513 1.25573 38.4371 2.41677 41.4286 5.57143" stroke="#851342" stroke-width="3.75" stroke-linecap="round"/>
</svg>
