<svg width="43" height="51" viewBox="0 0 43 51" fill="none" xmlns="http://www.w3.org/2000/svg">
<path d="M40.5568 51C41.9061 51 43 49.8951 43 48.5323C43 47.1694 41.9061 46.0645 40.5568 46.0645V51ZM2.44318 46.0645C1.09383 46.0645 0 47.1694 0 48.5323C0 49.8951 1.09383 51 2.44318 51V46.0645ZM5.44389 48.5323C5.44389 49.8951 6.53772 51 7.88707 51C9.23639 51 10.3302 49.8951 10.3302 48.5323H5.44389ZM7.88707 38.4573H10.3302C10.3302 38.4244 10.3296 38.3912 10.3283 38.3582L7.88707 38.4573ZM11.0632 32.4195L9.93631 30.2298C9.89044 30.2542 9.84532 30.2795 9.80105 30.3065L11.0632 32.4195ZM18.0317 28.7607L19.1585 30.9504L19.1771 30.9405L18.0317 28.7607ZM24.9713 28.7607L23.8259 30.9405L23.8458 30.9507L24.9713 28.7607ZM31.9305 32.4097L33.1924 30.2966C33.1478 30.2697 33.1022 30.2437 33.0559 30.2196L31.9305 32.4097ZM35.1066 38.4474L32.6654 38.3484C32.6641 38.3813 32.6634 38.4145 32.6634 38.4474H35.1066ZM32.6634 48.5323C32.6634 49.8951 33.7573 51 35.1066 51C36.4559 51 37.5498 49.8951 37.5498 48.5323H32.6634ZM37.5498 2.46774C37.5498 1.10486 36.4559 0 35.1066 0C33.7573 0 32.6634 1.10486 32.6634 2.46774H37.5498ZM35.1066 13.9839H32.6634C32.6634 14.0169 32.6641 14.0498 32.6654 14.0828L35.1066 13.9839ZM31.9305 20.0216L33.0572 22.2113C33.1032 22.187 33.1481 22.1616 33.1924 22.1347L31.9305 20.0216ZM24.9684 23.6772L23.8413 21.4875L23.823 21.4973L24.9684 23.6772ZM18.0284 23.6772L19.1738 21.4973L19.1559 21.4878L18.0284 23.6772ZM11.0696 20.0216L9.80741 22.1347C9.85155 22.1613 9.8965 22.187 9.94224 22.211L11.0696 20.0216ZM7.89342 13.9839L10.3346 14.0828C10.3359 14.0498 10.3366 14.0169 10.3366 13.9839H7.89342ZM10.3366 2.46774C10.3366 1.10486 9.24274 0 7.89342 0C6.54407 0 5.45024 1.10486 5.45024 2.46774H10.3366ZM35.116 0C33.7667 0 32.6729 1.10486 32.6729 2.46774C32.6729 3.83063 33.7667 4.93548 35.116 4.93548V0ZM40.5568 4.93548C41.9061 4.93548 43 3.83063 43 2.46774C43 1.10486 41.9061 0 40.5568 0V4.93548ZM35.116 4.93548C36.4653 4.93548 37.556 3.83063 37.556 2.46774C37.556 1.10486 36.4653 0 35.116 0V4.93548ZM7.88707 0C6.53772 0 5.44389 1.10486 5.44389 2.46774C5.44389 3.83063 6.53772 4.93548 7.88707 4.93548V0ZM7.88707 4.93548C9.23639 4.93548 10.3302 3.83063 10.3302 2.46774C10.3302 1.10486 9.23639 0 7.88707 0V4.93548ZM2.44318 0C1.09383 0 0 1.10486 0 2.46774C0 3.83063 1.09383 4.93548 2.44318 4.93548V0ZM17.3105 13.5114C16.1527 12.8116 14.6524 13.1924 13.9596 14.3619C13.2667 15.5314 13.6437 17.0468 14.8016 17.7466L17.3105 13.5114ZM21.5 18.9194L20.2455 21.037C21.0179 21.5039 21.9822 21.5039 22.7545 21.037L21.5 18.9194ZM28.1982 17.7466C29.3563 17.0468 29.7332 15.5314 29.0403 14.3619C28.3475 13.1924 26.8473 12.8116 25.6893 13.5114L28.1982 17.7466ZM40.5568 46.0645H2.44318V51H40.5568V46.0645ZM10.3302 48.5323V38.4573H5.44389V48.5323H10.3302ZM10.3283 38.3582C10.2652 36.771 11.0529 35.3078 12.3253 34.5326L9.80105 30.3065C6.96719 32.0336 5.313 35.2124 5.44584 38.5563L10.3283 38.3582ZM12.1901 34.6093L19.1585 30.9504L16.9046 26.571L9.93631 30.2298L12.1901 34.6093ZM19.1771 30.9405C20.6371 30.1578 22.3662 30.1578 23.8259 30.9405L26.117 26.5809C23.2243 25.0301 19.7787 25.0301 16.8863 26.5809L19.1771 30.9405ZM23.8458 30.9507L30.8046 34.5997L33.0559 30.2196L26.0971 26.5707L23.8458 30.9507ZM30.6681 34.5227C31.9405 35.2979 32.7282 36.7611 32.6654 38.3484L37.5478 38.5465C37.6807 35.2025 36.0265 32.0237 33.1924 30.2966L30.6681 34.5227ZM32.6634 38.4474V48.5323H37.5498V38.4474H32.6634ZM32.6634 2.46774V13.9839H37.5498V2.46774H32.6634ZM32.6654 14.0828C32.7282 15.6702 31.9405 17.1333 30.6681 17.9087L33.1924 22.1347C36.0265 20.4076 37.6804 17.2287 37.5478 13.8849L32.6654 14.0828ZM30.8033 17.832L23.8413 21.4875L26.0952 25.8669L33.0572 22.2113L30.8033 17.832ZM23.823 21.4973C22.363 22.2801 20.6338 22.2801 19.1738 21.4973L16.8831 25.857C19.7755 27.4077 23.2213 27.4077 26.1137 25.857L23.823 21.4973ZM19.1559 21.4878L12.1968 17.8323L9.94224 22.211L16.901 25.8665L19.1559 21.4878ZM12.3317 17.9087C11.0593 17.1333 10.2715 15.6702 10.3346 14.0828L5.4522 13.8849C5.31935 17.2287 6.97355 20.4076 9.80741 22.1347L12.3317 17.9087ZM10.3366 13.9839V2.46774H5.45024V13.9839H10.3366ZM35.116 4.93548H40.5568V0H35.116V4.93548ZM35.116 0H7.88707V4.93548H35.116V0ZM7.88707 0H2.44318V4.93548H7.88707V0ZM14.8016 17.7466L20.2455 21.037L22.7545 16.8018L17.3105 13.5114L14.8016 17.7466ZM22.7545 21.037L28.1982 17.7466L25.6893 13.5114L20.2455 16.8018L22.7545 21.037Z" fill="#851342"/>
</svg>
