<svg width="32" height="32" viewBox="0 0 32 32" fill="none" xmlns="http://www.w3.org/2000/svg">
<path d="M16.1811 17.17C16.0761 17.155 15.9411 17.155 15.8211 17.17C13.1811 17.08 11.0811 14.92 11.0811 12.265C11.0811 9.54997 13.2711 7.34497 16.0011 7.34497C18.7161 7.34497 20.9211 9.54997 20.9211 12.265C20.9061 14.92 18.8211 17.08 16.1811 17.17Z" stroke="#000000" stroke-width="1.5" stroke-linecap="round" stroke-linejoin="round"/>
<path d="M26.1097 27.0703C23.4397 29.5153 19.8997 31.0003 15.9997 31.0003C12.0996 31.0003 8.55965 29.5153 5.88965 27.0703C6.03965 25.6603 6.93965 24.2803 8.54465 23.2003C12.6546 20.4703 19.3747 20.4703 23.4547 23.2003C25.0597 24.2803 25.9597 25.6603 26.1097 27.0703Z" stroke="#000000" stroke-width="1.5" stroke-linecap="round" stroke-linejoin="round"/>
<path d="M16 31C24.2842 31 31 24.2842 31 16C31 7.71572 24.2842 1 16 1C7.71572 1 1 7.71572 1 16C1 24.2842 7.71572 31 16 31Z" stroke="#000000" stroke-width="1.5" stroke-linecap="round" stroke-linejoin="round"/>
</svg>
