<svg width="19" height="28" viewBox="0 0 19 28" fill="none" xmlns="http://www.w3.org/2000/svg">
<path d="M10.1305 8.57641L9.97235 9.73238C9.94328 9.94496 10.0335 10.1563 10.207 10.2825C10.3084 10.3561 10.4285 10.3937 10.5494 10.3937C10.6356 10.3937 10.7223 10.3745 10.8027 10.3357L11.8532 9.82813L12.9037 10.3357C13.0969 10.429 13.3256 10.4086 13.4993 10.2825C13.6729 10.1563 13.7631 9.94501 13.734 9.73248L13.5759 8.57651L14.3832 7.73421C14.5317 7.57933 14.583 7.35533 14.5167 7.15131C14.4504 6.94729 14.2773 6.79621 14.0661 6.75817L12.9179 6.55134L12.3663 5.5232C12.2649 5.33413 12.0677 5.21619 11.8531 5.21619C11.6386 5.21619 11.4415 5.33418 11.34 5.5232L10.7884 6.55134L9.64018 6.75817C9.42908 6.79621 9.25591 6.94729 9.18965 7.15131C9.12333 7.35533 9.17464 7.57938 9.32313 7.73421L10.1305 8.57641ZM11.2718 7.64755C11.4467 7.616 11.5978 7.50636 11.6817 7.34973L11.8531 7.0302L12.0246 7.34973C12.1085 7.5063 12.2596 7.616 12.4345 7.64755L12.7913 7.71186L12.5404 7.97364C12.4174 8.10199 12.3597 8.27943 12.3838 8.4555L12.4329 8.81472L12.1065 8.65699C12.0265 8.61831 11.9398 8.59897 11.8531 8.59897C11.7664 8.59897 11.6797 8.61831 11.5997 8.65699L11.2733 8.81467L11.3225 8.4555C11.3465 8.27938 11.2888 8.10194 11.1659 7.97364L10.9149 7.71181L11.2718 7.64755Z" fill="#CA2061"/>
<path d="M5.01054 7.2225H7.71837C8.03992 7.2225 8.30069 6.96178 8.30069 6.64018C8.30069 6.31858 8.03992 6.05786 7.71837 6.05786H5.01054C4.689 6.05786 4.42822 6.31858 4.42822 6.64018C4.42822 6.96178 4.689 7.2225 5.01054 7.2225Z" fill="#CA2061"/>
<path d="M5.01054 9.5518H7.71837C8.03992 9.5518 8.30069 9.29108 8.30069 8.96948C8.30069 8.64788 8.03992 8.38716 7.71837 8.38716H5.01054C4.689 8.38716 4.42822 8.64788 4.42822 8.96948C4.42822 9.29108 4.689 9.5518 5.01054 9.5518Z" fill="#CA2061"/>
<path d="M10.1304 14.6274L9.97229 15.7833C9.94323 15.9959 10.0334 16.2073 10.207 16.3334C10.3805 16.4596 10.6094 16.48 10.8027 16.3866L11.8531 15.879L12.9036 16.3866C12.9841 16.4254 13.0707 16.4446 13.157 16.4446C13.2779 16.4446 13.398 16.407 13.4993 16.3334C13.6729 16.2072 13.7631 15.9959 13.734 15.7833L13.5759 14.6274L14.3832 13.7851C14.5317 13.6302 14.583 13.4062 14.5167 13.2022C14.4504 12.9982 14.2773 12.8471 14.0661 12.809L12.9179 12.6022L12.3663 11.5741C12.2649 11.385 12.0677 11.2671 11.8531 11.2671C11.6386 11.2671 11.4415 11.385 11.34 11.5741L10.7884 12.6022L9.64018 12.809C9.42908 12.8471 9.25591 12.9982 9.18965 13.2022C9.12333 13.4062 9.17464 13.6302 9.32313 13.7851L10.1304 14.6274ZM11.2718 13.6986C11.4467 13.667 11.5977 13.5574 11.6817 13.4008L11.8531 13.0812L12.0245 13.4008C12.1085 13.5573 12.2595 13.6671 12.4344 13.6986L12.7913 13.7629L12.5403 14.0247C12.4173 14.153 12.3596 14.3305 12.3837 14.5065L12.4329 14.8658L12.1064 14.7081C12.0264 14.6694 11.9398 14.65 11.853 14.65C11.7663 14.65 11.6797 14.6694 11.5997 14.7081L11.2732 14.8657L11.3224 14.5065C11.3464 14.3305 11.2888 14.153 11.1658 14.0247L10.9149 13.7628L11.2718 13.6986Z" fill="#CA2061"/>
<path d="M5.01054 13.2736H7.71837C8.03992 13.2736 8.30069 13.0129 8.30069 12.6913C8.30069 12.3697 8.03992 12.1089 7.71837 12.1089H5.01054C4.689 12.1089 4.42822 12.3697 4.42822 12.6913C4.42822 13.0129 4.689 13.2736 5.01054 13.2736Z" fill="#CA2061"/>
<path d="M5.01054 15.6028H7.71837C8.03992 15.6028 8.30069 15.3421 8.30069 15.0205C8.30069 14.6989 8.03992 14.4382 7.71837 14.4382H5.01054C4.689 14.4382 4.42822 14.6989 4.42822 15.0205C4.42822 15.3421 4.689 15.6028 5.01054 15.6028Z" fill="#CA2061"/>
<path d="M10.1301 20.6785L9.97191 21.8344C9.94285 22.047 10.033 22.2584 10.2066 22.3845C10.3079 22.4581 10.428 22.4957 10.5489 22.4957C10.6351 22.4957 10.7218 22.4765 10.8023 22.4377L11.8528 21.9301L12.9033 22.4377C13.0965 22.5311 13.3253 22.5106 13.4989 22.3845C13.6725 22.2584 13.7626 22.047 13.7336 21.8344L13.5755 20.6785L14.3828 19.8362C14.5313 19.6813 14.5826 19.4573 14.5163 19.2533C14.4499 19.0493 14.2769 18.8982 14.0657 18.8602L12.9174 18.6533L12.3658 17.6252C12.2644 17.4361 12.0673 17.3181 11.8527 17.3181C11.6381 17.3181 11.441 17.4361 11.3395 17.6252L10.7879 18.6533L9.63969 18.8602C9.42854 18.8982 9.25543 19.0492 9.18916 19.2533C9.12285 19.4573 9.17415 19.6813 9.32264 19.8362L10.1301 20.6785ZM11.2715 19.7496C11.4464 19.7181 11.5974 19.6084 11.6813 19.4517L11.8528 19.1322L12.0242 19.4517C12.1082 19.6083 12.2591 19.718 12.434 19.7496L12.7909 19.8139L12.54 20.0756C12.417 20.2039 12.3593 20.3813 12.3834 20.5575L12.4325 20.9167L12.1061 20.759C12.0261 20.7203 11.9394 20.701 11.8527 20.701C11.766 20.701 11.6793 20.7203 11.5993 20.759L11.2729 20.9167L11.3221 20.5575C11.3461 20.3814 11.2885 20.204 11.1655 20.0757L10.9146 19.8139L11.2715 19.7496Z" fill="#CA2061"/>
<path d="M5.01054 19.3246H7.71837C8.03992 19.3246 8.30069 19.0639 8.30069 18.7423C8.30069 18.4207 8.03992 18.16 7.71837 18.16H5.01054C4.689 18.16 4.42822 18.4207 4.42822 18.7423C4.42822 19.0639 4.689 19.3246 5.01054 19.3246Z" fill="#CA2061"/>
<path d="M5.01054 21.6539H7.71837C8.03992 21.6539 8.30069 21.3932 8.30069 21.0716C8.30069 20.75 8.03992 20.4892 7.71837 20.4892H5.01054C4.689 20.4892 4.42822 20.75 4.42822 21.0716C4.42822 21.3932 4.689 21.6539 5.01054 21.6539Z" fill="#CA2061"/>
<path d="M18.391 0.873477H14.2908V0.582318C14.2908 0.260722 14.0301 0 13.7085 0H5.26485C4.94331 0 4.68254 0.260722 4.68254 0.582318V0.873477H0.582318C0.260775 0.873477 0 1.1342 0 1.4558V26.4728C0 26.7944 0.260775 27.0551 0.582318 27.0551H18.391C18.7125 27.0551 18.9733 26.7944 18.9733 26.4728V1.4558C18.9733 1.1342 18.7127 0.873477 18.391 0.873477ZM5.84717 1.16464H13.1262V3.20275H5.84717V1.16464ZM15.4794 4.36744V23.5611H3.49391V4.36744H15.4794ZM17.8087 25.8904H1.16464V2.03811H4.68254V3.20275H2.91164C2.5901 3.20275 2.32933 3.46347 2.32933 3.78507V24.1434C2.32933 24.465 2.5901 24.7257 2.91164 24.7257H16.0617C16.3833 24.7257 16.644 24.465 16.644 24.1434V3.78512C16.644 3.46352 16.3833 3.2028 16.0617 3.2028H14.2909V2.03811H17.8087L17.8087 25.8904Z" fill="#CA2061"/>
</svg>
