<svg width="26" height="26" viewBox="0 0 26 26" fill="none" xmlns="http://www.w3.org/2000/svg">
<path fill-rule="evenodd" clip-rule="evenodd" d="M0.727417 5.12253C0.727417 2.29343 2.92529 0 5.63651 0H20.3638C23.0749 0 25.2729 2.29343 25.2729 5.12253V20.4901C25.2729 23.3192 23.0749 25.6126 20.3638 25.6126H5.63651C2.92529 25.6126 0.727417 23.3192 0.727417 20.4901V5.12253ZM5.63651 2.56126C4.2809 2.56126 3.18196 3.70798 3.18196 5.12253V20.4901C3.18196 21.9047 4.2809 23.0514 5.63651 23.0514H20.3638C21.7194 23.0514 22.8183 21.9047 22.8183 20.4901V5.12253C22.8183 3.70798 21.7194 2.56126 20.3638 2.56126H5.63651ZM13.0001 8.96443C10.9667 8.96443 9.31833 10.6844 9.31833 12.8063C9.31833 14.9282 10.9667 16.6482 13.0001 16.6482C15.0336 16.6482 16.682 14.9282 16.682 12.8063C16.682 10.6844 15.0336 8.96443 13.0001 8.96443ZM6.86378 12.8063C6.86378 9.26996 9.61113 6.40316 13.0001 6.40316C16.3891 6.40316 19.1365 9.26996 19.1365 12.8063C19.1365 16.3427 16.3891 19.2095 13.0001 19.2095C9.61113 19.2095 6.86378 16.3427 6.86378 12.8063ZM19.7501 7.68379C20.7668 7.68379 21.5911 6.82376 21.5911 5.76285C21.5911 4.70193 20.7668 3.8419 19.7501 3.8419C18.7335 3.8419 17.9092 4.70193 17.9092 5.76285C17.9092 6.82376 18.7335 7.68379 19.7501 7.68379Z" fill="white"/>
</svg>
