<svg width="25" height="26" viewBox="0 0 25 26" fill="none" xmlns="http://www.w3.org/2000/svg">
<path fill-rule="evenodd" clip-rule="evenodd" d="M21.562 0C23.4106 0 24.9091 1.56371 24.9091 3.49263V22.12C24.9091 24.049 23.4106 25.6126 21.562 25.6126H3.71075C1.8622 25.6126 0.363647 24.049 0.363647 22.12V3.49263C0.363647 1.56371 1.8622 0 3.71075 0H21.562ZM21.562 2.32842C22.1782 2.32842 22.6777 2.84966 22.6777 3.49263V22.12C22.6777 22.763 22.1782 23.2842 21.562 23.2842H3.71075C3.09457 23.2842 2.59505 22.763 2.59505 22.12V3.49263C2.59505 2.84966 3.09457 2.32842 3.71075 2.32842H21.562Z" fill="white"/>
<path d="M5.36829 7.31798C6.43788 7.31798 7.30494 6.39651 7.30494 5.25982C7.30494 4.12313 6.43788 3.20166 5.36829 3.20166C4.29871 3.20166 3.43164 4.12313 3.43164 5.25982C3.43164 6.39651 4.29871 7.31798 5.36829 7.31798Z" fill="white"/>
<path d="M3.43164 10.0625C3.43164 9.30475 4.00969 8.69043 4.72274 8.69043H6.01384C6.72689 8.69043 7.30494 9.30474 7.30494 10.0625V21.0394C7.30494 21.7972 6.72689 22.4115 6.01384 22.4115H4.72274C4.00969 22.4115 3.43164 21.7972 3.43164 21.0394V10.0625Z" fill="white"/>
<path d="M11.5119 22.4115H12.803C13.5161 22.4115 14.0941 21.7972 14.0941 21.0394V14.8649C14.0941 12.8067 17.9674 11.4346 17.9674 14.1789V21.0399C17.9674 21.7978 18.5455 22.4115 19.2585 22.4115H20.5496C21.2627 22.4115 21.8407 21.7972 21.8407 21.0394V12.8067C21.8407 10.0625 19.9041 8.69043 17.3219 8.69043C14.7397 8.69043 14.0941 10.7486 14.0941 10.7486V10.0625C14.0941 9.30474 13.5161 8.69043 12.803 8.69043H11.5119C10.7989 8.69043 10.2208 9.30475 10.2208 10.0625V21.0394C10.2208 21.7972 10.7989 22.4115 11.5119 22.4115Z" fill="white"/>
</svg>
