<svg width="14" height="13" viewBox="0 0 14 13" fill="none" xmlns="http://www.w3.org/2000/svg">
<path d="M3 6.71099V5.38874H11V6.71099M1.01888 5.38881L5.8164 8.57319C6.24407 8.85588 6.45793 8.9973 6.68907 9.05224C6.89327 9.10076 7.1062 9.10076 7.31047 9.05224C7.5416 8.9973 7.75547 8.85588 8.18313 8.57319L12.9806 5.38874M5.8654 1.46748L1.99876 3.87561C1.63414 4.1027 1.45183 4.21623 1.3196 4.36972C1.20257 4.50557 1.11451 4.66353 1.06074 4.83407C1 5.02675 1 5.24024 1 5.66721V9.8844C1 10.6249 1 10.9952 1.14533 11.2781C1.27315 11.5268 1.47713 11.7291 1.72801 11.8559C2.01323 12 2.38659 12 3.13333 12H10.8667C11.6134 12 11.9868 12 12.272 11.8559C12.5229 11.7291 12.7269 11.5268 12.8547 11.2781C13 10.9952 13 10.6249 13 9.8844V5.66721C13 5.24024 13 5.02675 12.9393 4.83407C12.8855 4.66353 12.7975 4.50557 12.6804 4.36972C12.5482 4.21623 12.3659 4.1027 12.0013 3.87561L8.1346 1.46748C7.72307 1.21121 7.51733 1.08307 7.2966 1.03312C7.10133 0.988959 6.89867 0.988959 6.7034 1.03312C6.48267 1.08307 6.27693 1.21121 5.8654 1.46748Z" stroke="white" stroke-linecap="round" stroke-linejoin="round"/>
</svg>
