<svg width="13" height="15" viewBox="0 0 13 15" fill="none" xmlns="http://www.w3.org/2000/svg">
<path fill-rule="evenodd" clip-rule="evenodd" d="M11.7829 0.578422C11.0873 -0.192806 9.95967 -0.192809 9.26413 0.578422L0.859294 9.89818C0.610667 10.1739 0.441194 10.525 0.37224 10.9073L0.0237172 12.8396C-0.142442 13.7608 0.590043 14.5731 1.42084 14.3888L3.16345 14.0023C3.50823 13.9259 3.82489 13.738 4.07352 13.4623L12.4783 4.14252C13.1739 3.37129 13.1739 2.12088 12.4783 1.34965L11.7829 0.578422ZM10.1037 1.50938C10.3356 1.2523 10.7114 1.2523 10.9433 1.50938L11.6388 2.28061C11.8707 2.53768 11.8707 2.95449 11.6388 3.21157L10.0528 4.97024L8.51772 3.26805L10.1037 1.50938ZM7.6781 4.19901L1.69886 10.8291C1.61598 10.921 1.5595 11.0381 1.53651 11.1655L1.18799 13.0978L2.93059 12.7113C3.04552 12.6858 3.15108 12.6232 3.23395 12.5313L9.21319 5.90119L7.6781 4.19901Z" fill="#851342"/>
</svg>
