<svg width="15" height="17" viewBox="0 0 15 17" fill="none" xmlns="http://www.w3.org/2000/svg">
<path fill-rule="evenodd" clip-rule="evenodd" d="M1.60714 12.8571L3.21429 9.64286V5.35714C3.21429 2.99036 5.13321 1.07143 7.5 1.07143C9.86679 1.07143 11.7857 2.99036 11.7857 5.35714V9.64286L13.3929 12.8571H1.60714ZM7.5 15C6.80089 15 6.21267 14.5516 5.99142 13.9286H9.00858C8.78733 14.5516 8.19911 15 7.5 15ZM12.8571 9.64286V5.35714C12.8571 2.39893 10.4582 0 7.5 0C4.54179 0 2.14286 2.39893 2.14286 5.35714V9.64286L0 13.9286H4.87554C5.12358 15.1511 6.20411 16.0714 7.5 16.0714C8.79589 16.0714 9.87642 15.1511 10.1245 13.9286H15L12.8571 9.64286Z" fill="#CA2061"/>
</svg>
