<svg width="12" height="13" viewBox="0 0 12 13" fill="none" xmlns="http://www.w3.org/2000/svg">
<path d="M6 1H3C2.29994 1 1.9499 1 1.68251 1.13322C1.44731 1.25039 1.25608 1.43737 1.13624 1.66735C1 1.92879 1 2.27105 1 2.95556V10.0444C1 10.7289 1 11.0712 1.13624 11.3327C1.25608 11.5626 1.44731 11.7496 1.68251 11.8668C1.9499 12 2.29994 12 3 12H5.375M6 1L9.75 4.66667M6 1V3.68889C6 4.03114 6 4.20227 6.06813 4.33299C6.12806 4.44798 6.22362 4.54147 6.34125 4.60006C6.47494 4.66667 6.64994 4.66667 7 4.66667H9.75M9.75 4.66667V5.88889M9.91788 10.9419L11 12M10.375 9.86111C10.375 10.7049 9.67544 11.3889 8.8125 11.3889C7.94956 11.3889 7.25 10.7049 7.25 9.86111C7.25 9.01735 7.94956 8.33333 8.8125 8.33333C9.67544 8.33333 10.375 9.01735 10.375 9.86111Z" stroke="white" stroke-linecap="round" stroke-linejoin="round"/>
</svg>
