<svg width="12" height="12" viewBox="0 0 12 12" fill="none" xmlns="http://www.w3.org/2000/svg">
<path d="M1 2.38889C1 7.14467 4.85533 11 9.61111 11C9.82567 11 10.0384 10.9922 10.2491 10.9767C10.4908 10.959 10.6116 10.9502 10.7217 10.8868C10.8128 10.8344 10.8992 10.7414 10.9448 10.6467C11 10.5323 11 10.3989 11 10.1322V8.56706C11 8.34272 11 8.23056 10.9631 8.13444C10.9305 8.0495 10.8775 7.97389 10.8088 7.91422C10.7311 7.84667 10.6257 7.80833 10.4149 7.73167L8.63333 7.08383C8.38806 6.99467 8.26539 6.95006 8.14906 6.95761C8.04645 6.96428 7.94772 6.99933 7.86383 7.05878C7.76872 7.12617 7.70161 7.23806 7.56733 7.46189L7.11111 8.22222C5.63894 7.5555 4.4455 6.3605 3.77778 4.88889L4.53813 4.43268C4.76192 4.29841 4.87381 4.23127 4.94122 4.13614C5.00067 4.05227 5.03572 3.95354 5.04239 3.85094C5.04994 3.73459 5.00533 3.61196 4.91617 3.36669L4.26833 1.58512C4.19167 1.37431 4.15334 1.26891 4.08579 1.19117C4.02612 1.12249 3.95049 1.06953 3.86557 1.03692C3.76942 1 3.65727 1 3.43296 1H1.86778C1.60104 1 1.46767 1 1.35332 1.05514C1.25861 1.10081 1.16563 1.18723 1.11317 1.27835C1.04982 1.38837 1.04097 1.50923 1.02327 1.75096C1.00785 1.96159 1 2.17432 1 2.38889Z" stroke="white" stroke-linecap="round" stroke-linejoin="round"/>
</svg>
