<svg width="43" height="43" viewBox="0 0 43 43" fill="none" xmlns="http://www.w3.org/2000/svg">
<path d="M3.44475 21.8257C4.01995 22.4016 4.01938 23.3349 3.44347 23.91L3.14126 24.2119C2.88311 24.4697 2.88311 24.8869 3.14126 25.1447C3.4004 25.4037 3.82128 25.4037 4.08044 25.1447L7.40487 21.8245C7.98078 21.2491 8.91395 21.2497 9.48917 21.8257C10.0644 22.4016 10.0638 23.3349 9.4879 23.91L6.16346 27.2305C4.75349 28.6386 2.4682 28.6386 1.05822 27.2305C-0.35274 25.8211 -0.35274 23.5355 1.05822 22.1263L1.36045 21.8245C1.93636 21.2491 2.86953 21.2497 3.44475 21.8257Z" fill="#851342"/>
<path d="M12.9833 23.7835C13.5588 24.3591 13.5588 25.2921 12.9833 25.8677L8.82334 30.0276C8.24778 30.6032 7.31462 30.6032 6.73904 30.0276C6.16348 29.452 6.16348 28.519 6.73904 27.9434L10.899 23.7835C11.4745 23.2079 12.4077 23.2079 12.9833 23.7835Z" fill="#851342"/>
<path d="M18.4381 29.2312C19.0136 29.8068 19.0136 30.74 18.4381 31.3156L14.3065 35.447C13.7309 36.0226 12.7978 36.0226 12.2222 35.447C11.6466 34.8715 11.6466 33.9382 12.2222 33.3627L16.3537 29.2312C16.9292 28.6557 17.8625 28.6557 18.4381 29.2312Z" fill="#851342"/>
<path d="M12.2273 30.0091C12.7964 30.591 12.7861 31.524 12.2041 32.0931L8.84465 35.3787C8.26272 35.9478 7.32959 35.9374 6.76048 35.3556C6.19135 34.7737 6.20173 33.8405 6.78367 33.2714L10.1431 29.9859C10.7251 29.4166 11.6582 29.4271 12.2273 30.0091Z" fill="#851342"/>
<path d="M20.3512 32.7704C20.9265 33.3464 20.9259 34.2796 20.35 34.8548L17.0255 38.1752C16.7674 38.433 16.7674 38.8502 17.0255 39.108C17.2846 39.3668 17.7055 39.3668 17.9647 39.108L18.267 38.8062C18.8429 38.231 19.776 38.2316 20.3512 38.8076C20.9265 39.3833 20.9259 40.3166 20.35 40.8918L20.0477 41.1936C18.6378 42.602 16.3525 42.602 14.9425 41.1936C13.5315 39.7844 13.5315 37.4988 14.9425 36.0895L18.267 32.7692C18.8429 32.194 19.776 32.1944 20.3512 32.7704Z" fill="#851342"/>
<path fill-rule="evenodd" clip-rule="evenodd" d="M32.8997 0.000104956L33.1624 0.000223022H34.2338C35.7147 0.000164069 36.9713 0.000104977 37.9739 0.134321C39.0404 0.277105 40.0373 0.595549 40.8432 1.39813C41.6501 2.20158 41.971 3.19673 42.1148 4.26169C42.2498 5.26118 42.2496 6.51379 42.2496 7.98744V9.05543L42.2498 9.31857C42.2508 11.0891 42.2518 12.3856 41.7573 13.5738C41.2635 14.7614 40.3431 15.6767 39.085 16.9279L38.8981 17.1138L34.4452 21.5479L34.5224 21.667C35.1923 22.7002 35.741 23.5466 36.1381 24.2784C36.5516 25.0403 36.8523 25.7671 36.9729 26.5777C37.1649 27.8668 36.9912 29.1907 36.4834 30.4058C36.2897 30.8691 35.9593 31.3455 35.6315 31.7676C35.2861 32.2127 34.8652 32.6955 34.4157 33.1848C33.5216 34.1575 32.4495 35.2253 31.5011 36.1698L31.4874 36.1835L31.3435 36.3266C30.0184 37.6462 27.7197 37.2215 27.0105 35.4449C26.6196 34.4656 26.4669 34.0897 26.2769 33.7437C26.0991 33.42 25.8953 33.1113 25.6671 32.8207C25.4266 32.5141 25.1452 32.2294 24.4218 31.509L23.5906 30.7811C23.4511 30.796 23.3098 30.8035 23.1663 30.8035C22.0288 30.8035 21.0981 30.3275 20.2413 29.6767C19.4366 29.0654 18.5476 28.1801 17.501 27.1376L15.0123 24.6594C13.9656 23.6173 13.0765 22.7319 12.4625 21.9307C11.8089 21.0776 11.3284 20.1478 11.3284 19.0092C11.3284 18.8374 11.3394 18.6688 11.3609 18.5032L10.0099 17.1578C9.92684 17.0751 9.89473 17.0431 9.86317 17.0125C9.24188 16.4104 8.51077 15.9315 7.7088 15.6014C7.66806 15.5847 7.62591 15.568 7.51665 15.5247L6.86931 15.2685C5.00899 14.5323 4.50571 12.1312 5.92834 10.7146L5.94205 10.7009C6.89049 9.75651 7.96274 8.68882 8.93979 7.79859C9.43105 7.35098 9.91581 6.93202 10.3627 6.58803C10.7867 6.26157 11.2643 5.93318 11.7282 5.74092C12.946 5.23626 14.2722 5.06386 15.5632 5.25442C16.3744 5.37415 17.1027 5.67267 17.8673 6.08416C18.602 6.47956 19.4517 7.02582 20.4897 7.69305L20.6188 7.77605L25.0786 3.33501L25.2645 3.14992C26.5219 1.89605 27.4404 0.980315 28.6313 0.4891C29.8215 -0.0018403 31.1201 -0.00101515 32.8997 0.000104956ZM32.3103 23.6739C32.8631 24.5289 33.2601 25.1548 33.5476 25.6846C33.8734 26.2849 34.0068 26.6709 34.0575 27.0118C34.1679 27.7533 34.0705 28.535 33.7637 29.2691C33.7266 29.3582 33.5963 29.5824 33.3033 29.9601C33.028 30.3146 32.6676 30.7306 32.2451 31.1902C31.4492 32.0564 30.4909 33.0156 29.5777 33.9252C29.3065 33.2489 29.1084 32.7761 28.8606 32.3247C28.6055 31.8605 28.3131 31.4178 27.9861 31.001C27.6173 30.5309 27.1954 30.111 26.5337 29.4523L26.4626 29.3813C26.5288 29.3261 26.5948 29.2701 26.6607 29.2135C27.3086 28.6547 28.0341 27.9321 28.8683 27.1014L32.3103 23.6739ZM33.1624 2.94787C31.0067 2.94787 30.3378 2.97377 29.7553 3.21406C29.1734 3.45406 28.683 3.90571 27.1586 5.42371L17.1627 15.3775C16.3088 16.2277 15.6682 16.8668 15.1867 17.4155C14.7027 17.9673 14.47 18.3293 14.3609 18.6004C14.2987 18.7547 14.2761 18.8818 14.2761 19.0092C14.2761 19.2403 14.349 19.5462 14.8023 20.1379C15.2814 20.763 16.0263 21.5094 17.1627 22.6409L17.2966 22.7743L19.7785 20.3028C20.3553 19.7286 21.2885 19.7306 21.8629 20.3073C22.4373 20.8841 22.4353 21.8173 21.8584 22.3915L19.3853 24.8544L19.5105 24.9789C20.6469 26.1104 21.3964 26.8523 22.0244 27.3296C22.6183 27.7808 22.9286 27.8558 23.1663 27.8558C23.288 27.8558 23.4067 27.836 23.5448 27.7851C23.8125 27.6866 24.1742 27.4656 24.7353 26.9816C25.2942 26.4995 25.9464 25.8512 26.8224 24.9789L36.8183 15.0251C38.3434 13.5064 38.7957 13.0189 39.0359 12.4417C39.2756 11.8652 39.302 11.2033 39.302 9.05541V8.08697C39.302 6.48646 39.2988 5.43495 39.1937 4.65609C39.0942 3.92026 38.929 3.65182 38.7633 3.48684C38.5967 3.32098 38.3247 3.15522 37.5827 3.05589C36.799 2.95097 35.7416 2.94787 34.1349 2.94787H33.1624ZM33.5981 8.61277C31.7263 6.7489 28.6942 6.7489 26.8224 8.61277C24.9471 10.4801 24.9471 13.5102 26.8224 15.3775C28.6942 17.2414 31.7263 17.2414 33.5981 15.3775C35.4732 13.5102 35.4732 10.4801 33.5981 8.61277ZM28.9023 10.7015C29.6238 9.98285 30.7964 9.98285 31.5182 10.7015C32.2364 11.4167 32.2364 12.5736 31.5182 13.2888C30.7964 14.0074 29.6238 14.0074 28.9023 13.2888C28.184 12.5736 28.184 11.4167 28.9023 10.7015ZM18.4802 9.90571C17.6267 9.35852 17.0007 8.96515 16.4704 8.67978C15.867 8.35501 15.4778 8.2214 15.1328 8.17047C14.3845 8.06003 13.5963 8.15752 12.8567 8.46399C12.7658 8.50168 12.5398 8.63193 12.1608 8.92373C11.8045 9.19796 11.3867 9.5568 10.925 9.97745C10.0591 10.7665 9.10075 11.7158 8.19087 12.6214L8.60134 12.7839L8.61123 12.7878C8.70767 12.826 8.76916 12.8503 8.83051 12.8756C9.97768 13.3476 11.0244 14.0332 11.9145 14.8958C11.9623 14.9421 12.0092 14.9889 12.0831 15.0624L12.7513 15.7278C12.8231 15.6419 12.8964 15.5565 12.971 15.4715C13.5254 14.8396 14.2361 14.1319 15.0512 13.3203L18.4802 9.90571Z" fill="#851342"/>
</svg>
