<?xml version="1.0" standalone="no"?>
<!DOCTYPE svg PUBLIC "-//W3C//DTD SVG 20010904//EN"
 "http://www.w3.org/TR/2001/REC-SVG-20010904/DTD/svg10.dtd">
<svg version="1.0" xmlns="http://www.w3.org/2000/svg"
 width="300.000000pt" height="574.000000pt" viewBox="0 0 300.000000 574.000000"
 preserveAspectRatio="xMidYMid meet">
<metadata>
Created by potrace 1.10, written by Peter Selinger 2001-2011
</metadata>
<g transform="translate(0.000000,574.000000) scale(0.050000,-0.050000)"
fill="#000000" stroke="none">
<path d="M1990 10379 c-1253 -1325 -1267 -1340 -1208 -1324 48 12 43 -9 -20
-83 -30 -35 -29 -37 8 -25 263 77 3638 1012 3642 1008 3 -3 -44 -68 -104 -145
-61 -77 -129 -166 -152 -197 l-42 -58 47 15 c48 16 48 16 -7 -57 -64 -83 -71
-84 156 17 104 46 115 48 80 13 -71 -72 -1719 -1467 -1744 -1477 -13 -5 -187
69 -386 165 l-363 175 -104 -103 c-123 -121 -118 -120 -169 -40 l-39 62 -69
-107 c-38 -60 -118 -191 -177 -292 -129 -218 -142 -226 -242 -146 l-76 61 -12
-55 c-7 -31 -16 -70 -21 -87 -5 -18 -42 -48 -83 -68 -72 -34 -73 -37 -35 -62
187 -126 199 -89 -298 -914 -275 -457 -420 -715 -401 -715 26 0 25 -7 -3 -50
-43 -66 -164 -89 1335 249 730 164 1332 292 1339 285 20 -24 405 -1044 396
-1052 -4 -4 -232 19 -507 50 -274 32 -502 54 -507 49 -22 -22 8 -281 133
-1161 76 -528 136 -962 133 -965 -2 -3 -512 17 -1132 45 -1345 60 -1296 59
-1257 23 16 -15 663 -246 1439 -513 776 -267 1417 -492 1426 -500 9 -7 -88
-62 -214 -122 -298 -140 -296 -121 -39 -463 205 -271 210 -281 174 -315 -210
-201 -525 -441 -1171 -891 -422 -294 -775 -542 -786 -553 -19 -17 143 49 417
172 156 69 159 67 42 -37 -95 -85 -35 -62 1451 574 1391 596 1544 666 1495
683 -66 24 -69 40 -13 65 35 15 -68 69 -625 324 -367 169 -674 313 -682 321
-8 7 88 57 215 111 126 53 225 103 220 111 -6 9 6 22 25 29 35 13 -13 36
-1359 626 -294 129 -535 240 -535 246 -1 5 537 -37 1194 -94 657 -57 1261
-109 1342 -116 93 -8 142 -6 135 6 -7 11 0 23 16 26 19 5 -223 353 -689 996
-395 544 -715 991 -712 995 3 3 196 -71 429 -164 464 -186 476 -190 444 -130
-12 23 -16 50 -9 61 6 11 -138 373 -321 804 -183 432 -335 793 -337 804 -1 10
81 38 183 62 216 51 228 59 154 93 l-55 25 54 22 c52 21 41 30 -313 239 -201
119 -397 235 -434 257 l-68 41 14 -56 c9 -36 6 -51 -7 -42 -29 17 -32 30 77
-250 96 -245 97 -250 55 -263 -72 -23 -1394 -242 -1404 -233 -11 11 208 1634
227 1681 11 28 32 12 110 -86 l97 -121 99 142 c63 88 109 136 124 128 13 -7
265 -171 560 -364 l537 -351 216 219 c780 788 2663 2733 2654 2741 -5 6 -28 1
-50 -11 -72 -39 -72 -24 -2 49 85 88 150 113 -686 -257 -360 -159 -655 -284
-655 -277 0 7 64 94 142 193 107 136 133 182 108 187 -30 6 -30 10 -1 55 40
60 164 77 -1039 -140 -572 -103 -1044 -184 -1048 -180 -4 4 150 345 343 758
l351 750 -193 -1 -193 -1 -1040 -1099z m1087 -3722 c-47 -29 -75 -18 -106 42
-50 97 -36 108 51 40 60 -48 74 -69 55 -82z"/>
<path d="M2643 8609 c-31 -16 -39 -29 -23 -39 12 -8 18 -26 13 -40 -7 -17 10
-29 47 -34 47 -7 58 0 66 37 12 67 -42 108 -103 76z"/>
<path d="M5288 7358 c-52 -55 -66 -60 -143 -48 -95 14 -102 2 -54 -93 31 -60
29 -77 -21 -202 -13 -31 -4 -33 79 -22 86 12 98 8 161 -53 l67 -65 14 93 c12
80 24 99 93 140 l80 47 -81 46 c-66 37 -83 59 -93 122 -18 102 -33 107 -102
35z"/>
<path d="M4000 5979 c0 -25 -15 -62 -33 -82 -30 -33 -30 -37 -1 -37 17 0 44
-18 60 -40 25 -36 31 -37 54 -10 14 16 42 30 63 30 33 0 35 6 16 42 -12 23
-18 59 -13 80 9 31 2 36 -38 26 -27 -7 -62 -2 -78 12 -25 21 -30 17 -30 -21z"/>
<path d="M1610 5512 c-32 -18 -36 -31 -21 -65 28 -64 105 -74 116 -14 13 63
-41 108 -95 79z"/>
</g>
</svg>
